<svg id="visual" viewBox="0 0 960 540" width="960" height="540" xmlns="http://www.w3.org/2000/svg" xmlns:xlink="http://www.w3.org/1999/xlink" version="1.1"><rect x="0" y="0" width="960" height="540" fill="#ffffff"></rect><g transform="translate(475.2904430784836 238.25668539793912)"><path d="M42 -64.8C54.2 -48.9 63.7 -36.4 95.3 -13.4C126.8 9.5 180.4 42.7 174.7 55.7C169.1 68.7 104.2 61.5 65.2 65.5C26.3 69.5 13.1 84.7 -19.9 112.1C-52.9 139.5 -105.8 179 -116.5 165.8C-127.2 152.6 -95.7 86.7 -105.4 38.6C-115.1 -9.6 -166 -40 -165.7 -57.9C-165.5 -75.8 -114.2 -81.2 -78.1 -89.3C-41.9 -97.4 -21 -108.2 -3 -104C14.9 -99.8 29.8 -80.7 42 -64.8" fill="#715DF2"></path></g></svg>