<svg id="visual" viewBox="0 0 960 540" width="960" height="540" xmlns="http://www.w3.org/2000/svg" xmlns:xlink="http://www.w3.org/1999/xlink" version="1.1"><path d="M0 60L96 66L192 109L288 131L384 66L480 55L576 98L672 109L768 109L864 66L960 131L960 0L864 0L768 0L672 0L576 0L480 0L384 0L288 0L192 0L96 0L0 0Z" fill="#bfb6ff"></path><path d="M0 114L96 131L192 168L288 168L384 136L480 125L576 158L672 179L768 174L864 120L960 163L960 129L864 64L768 107L672 107L576 96L480 53L384 64L288 129L192 107L96 64L0 58Z" fill="#bcadff"></path><path d="M0 266L96 249L192 298L288 309L384 282L480 266L576 341L672 255L768 303L864 222L960 341L960 161L864 118L768 172L672 177L576 156L480 123L384 134L288 166L192 166L96 129L0 112Z" fill="#b9a4ff"></path><path d="M0 411L96 449L192 417L288 449L384 401L480 406L576 438L672 411L768 438L864 406L960 444L960 339L864 220L768 301L672 253L576 339L480 264L384 280L288 307L192 296L96 247L0 264Z" fill="#b79aff"></path><path d="M0 460L96 487L192 482L288 492L384 471L480 465L576 482L672 460L768 476L864 471L960 482L960 442L864 404L768 436L672 409L576 436L480 404L384 399L288 447L192 415L96 447L0 409Z" fill="#b690fe"></path><path d="M0 541L96 541L192 541L288 541L384 541L480 541L576 541L672 541L768 541L864 541L960 541L960 480L864 469L768 474L672 458L576 480L480 463L384 469L288 490L192 480L96 485L0 458Z" fill="#b686fd"></path></svg>